<svg width="54" height="54" viewBox="0 0 54 54" fill="none" xmlns="http://www.w3.org/2000/svg">
<path d="M9.7869 13.5781L5.94211 9.76007C2.68868 13.7395 0.537786 18.6598 0 24.0641H5.43117C5.91514 20.1386 7.47468 16.5626 9.7869 13.5781Z" fill="#FF26BE"/>
<path d="M21.3754 38.852L29.576 32.6949L37.5077 26.7528L29.576 20.8107L21.3754 14.6536V38.852Z" fill="#FF26BE"/>
<path d="M24.064 5.4313V0C18.6597 0.537786 13.7393 2.6888 9.76004 5.94211L13.578 9.78702C16.5625 7.47468 20.1385 5.91527 24.064 5.4313Z" fill="#FF26BE"/>
<path d="M29.5759 0V5.43117C40.1156 6.82939 48.2624 15.8635 48.2624 26.7528C48.2624 37.6421 40.1156 46.6762 29.5758 48.0743V53.5055C43.1001 52.0805 53.6399 40.6266 53.6399 26.7528C53.6399 12.879 43.1001 1.42506 29.5759 0Z" fill="#FF26BE"/>
<path d="M5.43117 29.4415H0C0.537786 34.8458 2.68868 39.7661 5.94211 43.7454L9.78702 39.9005C7.47468 36.943 5.91514 33.367 5.43117 29.4415Z" fill="#FF26BE"/>
<path d="M9.76004 47.5635C13.7393 50.8168 18.6866 52.9678 24.064 53.5056V48.0744C20.1384 47.5905 16.5625 46.0311 13.578 43.7187L9.76004 47.5635Z" fill="#FF26BE"/>
</svg>
