<svg width="54" height="54" viewBox="0 0 54 54" fill="none" xmlns="http://www.w3.org/2000/svg">
<path d="M18.4753 0H6.18742C2.77571 0 0 2.77571 0 6.18742V18.4753C0 21.887 2.77571 24.6627 6.18742 24.6627H18.4753C21.887 24.6627 24.6627 21.887 24.6627 18.4753V6.18742C24.6627 2.77571 21.887 0 18.4753 0ZM20.4826 18.4753C20.4826 19.5821 19.5821 20.4826 18.4753 20.4826H6.18742C5.08063 20.4826 4.18013 19.5821 4.18013 18.4753V6.18742C4.18013 5.08063 5.08063 4.18013 6.18742 4.18013H18.4753C19.5821 4.18013 20.4826 5.08063 20.4826 6.18742V18.4753Z" fill="#FF26BE"/>
<path d="M47.2354 0H35.1131C31.6557 0 28.8429 2.81281 28.8429 6.27019V18.3926C28.8429 21.8499 31.6557 24.6627 35.1131 24.6627H47.2354C50.6928 24.6627 53.5056 21.8499 53.5056 18.3926V6.27019C53.5056 2.81281 50.6928 0 47.2354 0ZM49.3255 18.3926C49.3255 19.545 48.3879 20.4826 47.2354 20.4826H35.1131C33.9606 20.4826 33.023 19.545 33.023 18.3926V6.27019C33.023 5.11773 33.9606 4.18013 35.1131 4.18013H47.2354C48.3879 4.18013 49.3255 5.11773 49.3255 6.27019V18.3926Z" fill="#FF26BE"/>
<path d="M18.4753 28.8429H6.18742C2.77571 28.8429 0 31.6186 0 35.0303V47.3182C0 50.7299 2.77571 53.5056 6.18742 53.5056H18.4753C21.887 53.5056 24.6627 50.7299 24.6627 47.3182V35.0303C24.6627 31.6186 21.887 28.8429 18.4753 28.8429ZM20.4826 47.3182C20.4826 48.425 19.5821 49.3255 18.4753 49.3255H6.18742C5.08063 49.3255 4.18013 48.425 4.18013 47.3182V35.0303C4.18013 33.9235 5.08063 33.023 6.18742 33.023H18.4753C19.5821 33.023 20.4826 33.9235 20.4826 35.0303V47.3182Z" fill="#FF26BE"/>
<path d="M47.2354 28.8429H35.1131C31.6557 28.8429 28.8429 31.6557 28.8429 35.1131V47.2354C28.8429 50.6928 31.6557 53.5056 35.1131 53.5056H47.2354C50.6928 53.5056 53.5056 50.6928 53.5056 47.2354V35.1131C53.5056 31.6557 50.6928 28.8429 47.2354 28.8429ZM49.3255 47.2354C49.3255 48.3879 48.3879 49.3255 47.2354 49.3255H35.1131C33.9606 49.3255 33.023 48.3879 33.023 47.2354V35.1131C33.023 33.9606 33.9606 33.023 35.1131 33.023H47.2354C48.3879 33.023 49.3255 33.9606 49.3255 35.1131V47.2354Z" fill="#FF26BE"/>
</svg>
