<svg width="49" height="49" viewBox="0 0 49 49" fill="none" xmlns="http://www.w3.org/2000/svg">
<path d="M24.5055 11.937C17.5531 11.937 11.9453 17.5461 11.9453 24.5C11.9453 31.4539 17.5531 37.063 24.5055 37.063C31.4578 37.063 37.0656 31.4539 37.0656 24.5C37.0656 17.5461 31.4578 11.937 24.5055 11.937ZM24.5055 32.6676C20.0127 32.6676 16.3397 29.0047 16.3397 24.5C16.3397 19.9953 20.0017 16.3324 24.5055 16.3324C29.0092 16.3324 32.6712 19.9953 32.6712 24.5C32.6712 29.0047 28.9983 32.6676 24.5055 32.6676ZM40.509 11.4231C40.509 13.0523 39.1973 14.3534 37.5794 14.3534C35.9506 14.3534 34.6498 13.0413 34.6498 11.4231C34.6498 9.80492 35.9616 8.49286 37.5794 8.49286C39.1973 8.49286 40.509 9.80492 40.509 11.4231ZM48.8278 14.3971C48.642 10.4719 47.7456 6.99492 44.8707 4.13026C42.0066 1.26559 38.5305 0.369017 34.6061 0.172208C30.5615 -0.0574027 18.4385 -0.0574027 14.3939 0.172208C10.4805 0.358083 7.00429 1.25466 4.12934 4.11932C1.25438 6.98399 0.368935 10.461 0.17217 14.3862C-0.0573898 18.4317 -0.0573898 30.5573 0.17217 34.6029C0.358003 38.5281 1.25438 42.0051 4.12934 44.8697C7.00429 47.7344 10.4695 48.631 14.3939 48.8278C18.4385 49.0574 30.5615 49.0574 34.6061 48.8278C38.5305 48.6419 42.0066 47.7453 44.8707 44.8697C47.7347 42.0051 48.6311 38.5281 48.8278 34.6029C49.0574 30.5573 49.0574 18.4427 48.8278 14.3971ZM43.6026 38.9436C42.75 41.0866 41.0993 42.7376 38.9459 43.6014C36.18 44.6986 30.1572 44.6376 26.2506 44.598C25.6025 44.5914 25.0126 44.5855 24.5055 44.5855C24.008 44.5855 23.4308 44.591 22.7968 44.5971C18.8893 44.6346 12.8303 44.6927 10.0651 43.6014C7.92253 42.7486 6.27189 41.0976 5.40831 38.9436C4.31134 36.1771 4.37236 30.153 4.41194 26.2456C4.41851 25.5973 4.42448 25.0072 4.42448 24.5C4.42448 24.0025 4.41895 23.425 4.41287 22.791C4.37538 18.8826 4.31727 12.8223 5.40831 10.0564C6.26096 7.91337 7.9116 6.26236 10.0651 5.39858C12.831 4.30137 18.8537 4.3624 22.7603 4.40199C23.4084 4.40856 23.9983 4.41454 24.5055 4.41454C25.0029 4.41454 25.5802 4.409 26.2141 4.40292C30.1216 4.36543 36.1806 4.30729 38.9459 5.39858C41.0884 6.25142 42.739 7.90243 43.6026 10.0564C44.6996 12.8229 44.6386 18.847 44.599 22.7544C44.5924 23.4027 44.5864 23.9928 44.5864 24.5C44.5864 25.0071 44.5924 25.5973 44.599 26.2458C44.6386 30.1553 44.6996 36.1864 43.6026 38.9436Z" fill="#FF26BE"/>
<path d="M24.5055 11.937C17.5531 11.937 11.9453 17.5461 11.9453 24.5C11.9453 31.4539 17.5531 37.063 24.5055 37.063C31.4578 37.063 37.0656 31.4539 37.0656 24.5C37.0656 17.5461 31.4578 11.937 24.5055 11.937ZM24.5055 32.6676C20.0127 32.6676 16.3397 29.0047 16.3397 24.5C16.3397 19.9953 20.0017 16.3324 24.5055 16.3324C29.0092 16.3324 32.6712 19.9953 32.6712 24.5C32.6712 29.0047 28.9983 32.6676 24.5055 32.6676ZM40.509 11.4231C40.509 13.0523 39.1973 14.3534 37.5794 14.3534C35.9506 14.3534 34.6498 13.0413 34.6498 11.4231C34.6498 9.80492 35.9616 8.49286 37.5794 8.49286C39.1973 8.49286 40.509 9.80492 40.509 11.4231ZM48.8278 14.3971C48.642 10.4719 47.7456 6.99492 44.8707 4.13026C42.0066 1.26559 38.5305 0.369017 34.6061 0.172208C30.5615 -0.0574027 18.4385 -0.0574027 14.3939 0.172208C10.4805 0.358083 7.00429 1.25466 4.12934 4.11932C1.25438 6.98399 0.368935 10.461 0.17217 14.3862C-0.0573898 18.4317 -0.0573898 30.5573 0.17217 34.6029C0.358003 38.5281 1.25438 42.0051 4.12934 44.8697C7.00429 47.7344 10.4695 48.631 14.3939 48.8278C18.4385 49.0574 30.5615 49.0574 34.6061 48.8278C38.5305 48.6419 42.0066 47.7453 44.8707 44.8697C47.7347 42.0051 48.6311 38.5281 48.8278 34.6029C49.0574 30.5573 49.0574 18.4427 48.8278 14.3971ZM43.6026 38.9436C42.75 41.0866 41.0993 42.7376 38.9459 43.6014C36.18 44.6986 30.1572 44.6376 26.2506 44.598C25.6025 44.5914 25.0126 44.5855 24.5055 44.5855C24.008 44.5855 23.4308 44.591 22.7968 44.5971C18.8893 44.6346 12.8303 44.6927 10.0651 43.6014C7.92253 42.7486 6.27189 41.0976 5.40831 38.9436C4.31134 36.1771 4.37236 30.153 4.41194 26.2456C4.41851 25.5973 4.42448 25.0072 4.42448 24.5C4.42448 24.0025 4.41895 23.425 4.41287 22.791C4.37538 18.8826 4.31727 12.8223 5.40831 10.0564C6.26096 7.91337 7.9116 6.26236 10.0651 5.39858C12.831 4.30137 18.8537 4.3624 22.7603 4.40199C23.4084 4.40856 23.9983 4.41454 24.5055 4.41454C25.0029 4.41454 25.5802 4.409 26.2141 4.40292C30.1216 4.36543 36.1806 4.30729 38.9459 5.39858C41.0884 6.25142 42.739 7.90243 43.6026 10.0564C44.6996 12.8229 44.6386 18.847 44.599 22.7544C44.5924 23.4027 44.5864 23.9928 44.5864 24.5C44.5864 25.0071 44.5924 25.5973 44.599 26.2458C44.6386 30.1553 44.6996 36.1864 43.6026 38.9436Z" stroke="#FF26BE"/>
</svg>
