<svg width="33" height="54" viewBox="0 0 33 54" fill="none" xmlns="http://www.w3.org/2000/svg">
<path d="M29.7253 0H2.97249C1.33074 0 0 1.33085 0 2.97249V50.533C0 52.1747 1.33074 53.5056 2.97249 53.5056H29.7253C31.367 53.5056 32.6978 52.1747 32.6978 50.5331V2.97249C32.6978 1.33085 31.367 0 29.7253 0ZM18.4508 48.1762C17.8893 48.7376 17.1428 49.0468 16.3489 49.0468C14.7095 49.0461 13.3764 47.7127 13.3764 46.0743C13.3764 44.4352 14.7099 43.1018 16.3489 43.1018C17.9879 43.1018 19.3214 44.4352 19.3214 46.0743C19.3217 46.8678 19.0125 47.6146 18.4508 48.1762ZM28.239 38.643H4.45873V5.94508H28.239V38.643Z" fill="#FF26BE"/>
<path d="M21.4569 18.9022C20.0206 17.4659 17.6968 17.5111 16.3489 18.8589C15.001 17.5111 12.6772 17.4657 11.2409 18.9022C9.85088 20.2922 9.76874 22.5824 11.2409 24.0543L16.3489 29.1624L21.457 24.0543C22.929 22.5823 22.8469 20.292 21.4569 18.9022Z" fill="#FF26BE"/>
</svg>
