<svg width="56" height="45" viewBox="0 0 56 45" fill="none" xmlns="http://www.w3.org/2000/svg">
<path d="M50.2438 11.2148C50.2793 11.707 50.2793 12.1992 50.2793 12.6914C50.2793 27.7031 38.7312 45 17.6244 45C11.1218 45 5.08125 43.1366 0 39.9024C0.923894 40.0078 1.81213 40.043 2.77157 40.043C8.13699 40.043 13.0762 38.2501 17.0203 35.1915C11.9746 35.0859 7.74619 31.8164 6.28931 27.3164C7.00003 27.4218 7.71064 27.4921 8.45691 27.4921C9.48733 27.4921 10.5179 27.3515 11.4772 27.1055C6.21832 26.0507 2.27402 21.4804 2.27402 15.9609V15.8203C3.80189 16.6641 5.57869 17.1914 7.46181 17.2617C4.37042 15.2226 2.34512 11.7421 2.34512 7.80461C2.34512 5.69527 2.91354 3.76168 3.90853 2.07417C9.55832 8.96479 18.0508 13.4647 27.5735 13.957C27.3959 13.1132 27.2893 12.2344 27.2893 11.3555C27.2893 5.0976 32.4061 0 38.7665 0C42.071 0 45.0558 1.37109 47.1523 3.58594C49.7461 3.09377 52.2334 2.14451 54.4366 0.843756C53.5837 3.48053 51.7715 5.69538 49.3909 7.10153C51.7006 6.85556 53.9391 6.22261 56 5.34379C54.4368 7.5937 52.4824 9.59752 50.2438 11.2148V11.2148Z" fill="#FF26BE"/>
</svg>
