<svg width="38" height="54" viewBox="0 0 38 54" fill="none" xmlns="http://www.w3.org/2000/svg">
<path d="M18.5214 37.0414C21.3513 37.0414 23.7732 36.0339 25.7881 34.0198C27.8027 32.0056 28.8102 29.5825 28.8102 26.7527V10.2898C28.8102 7.46005 27.8035 5.03797 25.7881 3.02281C23.7732 1.00809 21.3513 0 18.5214 0C15.6917 0 13.2695 1.00809 11.2545 3.02281C9.23929 5.03764 8.23187 7.46005 8.23187 10.2898V26.7527C8.23187 29.5824 9.23974 32.0056 11.2545 34.0198C13.2692 36.0339 15.6917 37.0414 18.5214 37.0414Z" fill="#FF26BE"/>
<path d="M36.4309 21.19C36.0248 20.7827 35.5414 20.5789 34.984 20.5789C34.4272 20.5789 33.945 20.7827 33.5372 21.19C33.1303 21.5973 32.9266 22.0795 32.9266 22.6367V26.7527C32.9266 30.7186 31.5168 34.1107 28.6979 36.9296C25.8798 39.7485 22.4872 41.158 18.5212 41.158C14.5553 41.158 11.1631 39.7485 8.34403 36.9296C5.52529 34.1115 4.11604 30.7188 4.11604 26.7527V22.6367C4.11604 22.0795 3.9123 21.5973 3.50517 21.19C3.09781 20.7827 2.61601 20.5789 2.0583 20.5789C1.50059 20.5789 1.01823 20.7827 0.611094 21.19C0.203623 21.5973 0 22.0795 0 22.6367V26.7527C0 31.4902 1.58123 35.6116 4.74279 39.1161C7.90446 42.6207 11.8112 44.6302 16.4633 45.1443V49.3892H8.23174C7.67437 49.3892 7.19212 49.5932 6.78487 50.0005C6.37751 50.4075 6.17378 50.89 6.17378 51.4474C6.17378 52.0039 6.37751 52.4872 6.78487 52.8943C7.19212 53.3013 7.67437 53.5056 8.23174 53.5056H28.8101C29.3674 53.5056 29.8503 53.3014 30.257 52.8943C30.6648 52.4874 30.8687 52.004 30.8687 51.4474C30.8687 50.8901 30.6648 50.4077 30.257 50.0005C29.8504 49.5932 29.3675 49.3892 28.8101 49.3892H20.5796V45.1443C25.2309 44.6302 29.1373 42.6207 32.2993 39.1161C35.4613 35.6116 37.043 31.4902 37.043 26.7527V22.6367C37.043 22.0797 36.8388 21.5977 36.4309 21.19Z" fill="#FF26BE"/>
</svg>
