<svg width="54" height="54" viewBox="0 0 54 54" fill="none" xmlns="http://www.w3.org/2000/svg">
<path fill-rule="evenodd" clip-rule="evenodd" d="M24.064 5.4313V0C18.6597 0.537786 13.7393 2.6888 9.76001 5.94211L13.578 9.78702C16.5625 7.47468 20.1385 5.91527 24.064 5.4313ZM5.94211 9.76007L9.7869 13.5781C7.47468 16.5626 5.91514 20.1386 5.43117 24.0641H0C0.537786 18.6598 2.68868 13.7395 5.94211 9.76007ZM29.576 32.6949L21.3754 38.852V14.6536L29.576 20.8107L37.5077 26.7528L29.576 32.6949ZM29.5759 5.43117V0C43.1001 1.42506 53.6399 12.879 53.6399 26.7528C53.6399 40.6266 43.1001 52.0805 29.5758 53.5055V48.0743C40.1156 46.6762 48.2624 37.6421 48.2624 26.7528C48.2624 15.8635 40.1156 6.82939 29.5759 5.43117ZM5.43117 29.4415H0C0.537786 34.8458 2.68868 39.7661 5.94211 43.7454L9.78702 39.9005C7.47468 36.943 5.91514 33.367 5.43117 29.4415ZM24.064 53.5056C18.6866 52.9678 13.7393 50.8168 9.76001 47.5635L13.578 43.7187C16.5625 46.0311 20.1384 47.5905 24.064 48.0744V53.5056Z" fill="url(#paint0_linear)"/>
<defs>
<linearGradient id="paint0_linear" x1="26.8199" y1="2.32076" x2="26.8199" y2="24.3306" gradientUnits="userSpaceOnUse">
<stop stop-color="#F05985"/>
<stop offset="1" stop-color="#FB9764"/>
</linearGradient>
</defs>
</svg>
