<svg width="55" height="54" viewBox="0 0 55 54" fill="none" xmlns="http://www.w3.org/2000/svg">
<path fill-rule="evenodd" clip-rule="evenodd" d="M21.1406 8.41438L18.4593 5.73304L18.4444 5.71859C17.1488 4.40806 17.1529 2.28785 18.4572 0.983102C19.0914 0.349309 19.9346 0 20.831 0C21.7282 0 22.5709 0.349309 23.2051 0.983515L28.7974 6.57535C30.1062 7.88464 30.1058 10.0148 28.7974 11.3236C28.1627 11.9574 27.32 12.3067 26.4236 12.3067H26.4232C25.5268 12.3067 24.6841 11.9578 24.0499 11.3241L21.1406 8.41438ZM13.2179 14.4728L11.4684 12.7234C11.4655 12.7205 11.4627 12.7172 11.4594 12.7143C10.1583 11.4046 10.1608 9.28027 11.4668 7.97387C12.101 7.33966 12.9445 6.99036 13.8413 6.99036C14.7377 6.99036 15.58 7.33966 16.2142 7.97346L16.2146 7.97357L16.2147 7.97387L16.218 7.97717L18.6012 10.36L21.8057 13.5648C21.8102 13.5698 21.8152 13.5743 21.8205 13.5793L23.205 14.9641C23.8392 15.5979 24.1885 16.4415 24.1885 17.3383C24.1885 18.2347 23.8392 19.0778 23.2054 19.712C22.5708 20.3458 21.7276 20.6951 20.8312 20.6951C19.9344 20.6951 19.0913 20.3458 18.4575 19.7116L18.4385 19.693L17.064 18.3185C17.0623 18.3169 17.0611 18.3152 17.0594 18.314L13.2179 14.4728ZM4.48819 19.7232L10.0524 25.2869C10.0581 25.2927 10.0639 25.2985 10.0697 25.3038C10.7035 25.9381 11.5462 26.2874 12.443 26.2874C13.3398 26.2874 14.1834 25.9381 14.8176 25.3043C16.1248 23.9962 16.126 21.869 14.8205 20.5597L11.2882 17.0278L9.22492 14.9641C8.59072 14.3299 7.74717 13.9806 6.85078 13.9806C5.95397 13.9806 5.11125 14.3299 4.47746 14.9637C3.84284 15.5983 3.49353 16.4415 3.49353 17.3379C3.49353 18.2347 3.84284 19.0778 4.47705 19.7116C4.48076 19.7157 4.48448 19.7194 4.48819 19.7232ZM7.01467 35.3314C6.32679 35.222 5.69175 34.902 5.18761 34.4028C5.18472 34.3997 5.18162 34.3967 5.17861 34.3937L5.17481 34.39L0.999205 30.2148L0.990535 30.2058L0.981864 30.1967C-0.327426 28.8882 -0.327013 26.7581 0.981451 25.4492C1.61566 24.8154 2.45879 24.4661 3.3556 24.4661C4.2524 24.4661 5.09553 24.8154 5.73015 25.4496L9.92393 29.6434C11.2328 30.9523 11.2328 33.0824 9.92434 34.3913C9.29013 35.0255 8.447 35.3744 7.55061 35.3744C7.38338 35.3744 7.21823 35.3624 7.05596 35.3384L7.03649 35.3351L7.01467 35.3314ZM53.1372 25.4488C52.0492 24.3612 50.3675 24.1506 49.0475 24.9364C48.3612 25.3456 47.4781 25.18 46.9863 24.5503L46.8926 24.4298C46.3996 23.7988 46.4545 22.8992 47.021 22.3331L49.6408 19.7124L49.6469 19.7066C49.6535 19.7003 49.6601 19.6939 49.6668 19.6872C50.2853 19.0559 50.6255 18.2231 50.6255 17.3379C50.6255 16.4415 50.2762 15.5979 49.642 14.9637C49.0078 14.3295 48.1647 13.9806 47.2683 13.9806C46.3715 13.9806 45.5284 14.3299 44.8937 14.9641C44.2748 15.5835 43.2707 15.5835 42.6513 14.9641C42.3421 14.6545 42.1872 14.2486 42.1872 13.8427C42.1872 13.4373 42.3421 13.0314 42.6517 12.7217C43.9606 11.4128 43.9606 9.28271 42.6517 7.97342C41.3428 6.66495 39.2127 6.66495 37.9038 7.97342C37.2849 8.59276 36.2808 8.59276 35.6614 7.97342C35.3522 7.66375 35.1969 7.25787 35.1969 6.85241C35.1969 6.44653 35.3522 6.04066 35.6618 5.73099C36.296 5.09719 36.6453 4.25406 36.6453 3.35725C36.6453 2.46045 36.296 1.61773 35.6618 0.983521C34.353 -0.325768 32.2228 -0.325355 30.9135 0.983521L29.302 2.59505L31.0399 4.33334C33.585 6.87883 33.5846 11.0206 31.0395 13.5657C29.9631 14.6425 28.5774 15.2965 27.0823 15.4452C27.2648 16.0509 27.3598 16.6871 27.3598 17.3379C27.3598 19.0819 26.6805 20.7211 25.4472 21.9544C24.2139 23.1874 22.5743 23.8662 20.8311 23.8662C20.1791 23.8662 19.542 23.7712 18.935 23.5879C18.7897 25.0338 18.1654 26.441 17.0601 27.5467C16.0828 28.5228 14.8515 29.15 13.5158 29.3696C14.5753 31.7652 14.1269 34.6728 12.1669 36.6337C10.9327 37.867 9.29391 38.5454 7.55067 38.5454H7.55026C7.49414 38.5454 7.43827 38.5436 7.38246 38.5418L7.33679 38.5404L4.74051 41.1367C4.23141 41.6462 3.97294 42.3634 4.0134 43.1566C4.05717 44.0105 4.43455 44.8342 5.07702 45.4762L12.1392 52.5388C13.4283 53.8279 15.5262 53.8279 16.8152 52.5388L20.8191 48.535L22.3493 48.1241C28.6096 49.7959 35.3422 47.992 39.9192 43.4155L48.9232 34.4111C48.9302 34.4041 48.9372 34.397 48.9442 34.3896L53.1372 30.1967C54.4461 28.8882 54.4461 26.7581 53.1372 25.4488ZM42.1614 45.6583L48.0307 39.789L49.7054 41.4637C50.6134 42.3717 50.3099 44.2095 49.0423 45.4766L41.9797 52.5388C40.6907 53.8278 38.5927 53.8278 37.3037 52.5388L35.1075 50.3426C37.7339 49.2736 40.1366 47.6827 42.1614 45.6583Z" fill="url(#paint0_linear)"/>
<defs>
<linearGradient id="paint0_linear" x1="27.0594" y1="2.32077" x2="27.0594" y2="24.3307" gradientUnits="userSpaceOnUse">
<stop stop-color="#F05985"/>
<stop offset="1" stop-color="#FB9764"/>
</linearGradient>
</defs>
</svg>
