<svg width="55" height="54" viewBox="0 0 55 54" fill="none" xmlns="http://www.w3.org/2000/svg">
<path d="M18.4593 5.73304L21.1406 8.41438L24.0499 11.3241C24.6841 11.9578 25.5268 12.3067 26.4232 12.3067C26.4236 12.3067 26.4236 12.3067 26.4236 12.3067C27.32 12.3067 28.1627 11.9574 28.7974 11.3236C30.1058 10.0148 30.1062 7.88464 28.7974 6.57535L23.2051 0.983515C22.5709 0.349309 21.7282 0 20.831 0C19.9346 0 19.0914 0.349309 18.4572 0.983102C17.1529 2.28785 17.1488 4.40806 18.4444 5.71859C18.4494 5.72355 18.4543 5.72809 18.4593 5.73304Z" fill="#FF26BE"/>
<path d="M11.4685 12.7234L13.218 14.4728L17.0595 18.314C17.0612 18.3152 17.0624 18.3169 17.0641 18.3185L18.4386 19.693C18.4448 19.6992 18.4514 19.7054 18.4576 19.7116C19.0914 20.3458 19.9345 20.6951 20.8313 20.6951C21.7277 20.6951 22.5709 20.3458 23.2055 19.712C23.8393 19.0778 24.1886 18.2347 24.1886 17.3383C24.1886 16.4415 23.8393 15.5979 23.2051 14.9641L21.8206 13.5793C21.8153 13.5743 21.8103 13.5698 21.8058 13.5648L18.6013 10.36L16.2181 7.97714C16.2168 7.97591 16.216 7.97508 16.2148 7.97384C16.2148 7.97384 16.2148 7.97343 16.2143 7.97343C15.5801 7.33963 14.7378 6.99033 13.8414 6.99033C12.9446 6.99033 12.1011 7.33963 11.4669 7.97384C10.1609 9.28024 10.1584 11.4046 11.4595 12.7143C11.4628 12.7172 11.4656 12.7205 11.4685 12.7234Z" fill="#FF26BE"/>
<path d="M4.48819 19.7232L10.0524 25.2869C10.0581 25.2927 10.0639 25.2985 10.0697 25.3038C10.7035 25.9381 11.5462 26.2874 12.443 26.2874C13.3398 26.2874 14.1834 25.9381 14.8176 25.3043C16.1248 23.9962 16.126 21.869 14.8205 20.5597L11.2882 17.0278L9.22492 14.9641C8.59072 14.3299 7.74717 13.9806 6.85078 13.9806C5.95397 13.9806 5.11125 14.3299 4.47746 14.9637C3.84284 15.5983 3.49353 16.4415 3.49353 17.3379C3.49353 18.2347 3.84284 19.0778 4.47705 19.7116C4.48076 19.7157 4.48448 19.7194 4.48819 19.7232Z" fill="#FF26BE"/>
<path d="M5.18761 34.4028C5.69175 34.902 6.32679 35.222 7.01467 35.3314C7.02871 35.3339 7.04233 35.336 7.05596 35.3384C7.21823 35.3624 7.38338 35.3744 7.55061 35.3744C8.447 35.3744 9.29013 35.0255 9.92434 34.3913C11.2328 33.0824 11.2328 30.9523 9.92393 29.6434L5.73015 25.4496C5.09553 24.8154 4.2524 24.4661 3.3556 24.4661C2.45879 24.4661 1.61566 24.8154 0.981451 25.4492C-0.327013 26.7581 -0.327426 28.8882 0.981864 30.1967C0.987644 30.2029 0.993425 30.2086 0.999205 30.2148L5.17481 34.39C5.17894 34.3941 5.18348 34.3983 5.18761 34.4028Z" fill="#FF26BE"/>
<path d="M53.1371 25.4488C52.0491 24.3612 50.3674 24.1506 49.0474 24.9364C48.3611 25.3456 47.478 25.18 46.9862 24.5503L46.8925 24.4298C46.3995 23.7988 46.4544 22.8992 47.0209 22.3331L49.6407 19.7124C49.6494 19.7042 49.658 19.6959 49.6667 19.6872C50.2852 19.0559 50.6254 18.2231 50.6254 17.3379C50.6254 16.4415 50.2761 15.5979 49.6419 14.9637C49.0077 14.3295 48.1646 13.9806 47.2682 13.9806C46.3714 13.9806 45.5283 14.3299 44.8936 14.9641C44.2747 15.5835 43.2706 15.5835 42.6512 14.9641C42.342 14.6545 42.1871 14.2486 42.1871 13.8427C42.1871 13.4373 42.342 13.0314 42.6516 12.7217C43.9605 11.4128 43.9605 9.28271 42.6516 7.97342C41.3427 6.66495 39.2126 6.66495 37.9037 7.97342C37.2848 8.59276 36.2807 8.59276 35.6613 7.97342C35.3521 7.66375 35.1968 7.25787 35.1968 6.85241C35.1968 6.44653 35.3521 6.04066 35.6617 5.73099C36.2959 5.09719 36.6452 4.25406 36.6452 3.35725C36.6452 2.46045 36.2959 1.61773 35.6617 0.983521C34.3529 -0.325768 32.2227 -0.325355 30.9134 0.983521L29.3019 2.59505L31.0398 4.33334C33.5849 6.87883 33.5845 11.0206 31.0394 13.5657C29.963 14.6425 28.5773 15.2965 27.0822 15.4452C27.2647 16.0509 27.3597 16.6871 27.3597 17.3379C27.3597 19.0819 26.6804 20.7211 25.4471 21.9544C24.2138 23.1874 22.5742 23.8662 20.831 23.8662C20.179 23.8662 19.5419 23.7712 18.9349 23.5879C18.7896 25.0338 18.1653 26.441 17.06 27.5467C16.0827 28.5228 14.8514 29.15 13.5157 29.3696C14.5752 31.7652 14.1268 34.6728 12.1668 36.6337C10.9326 37.867 9.29385 38.5454 7.55061 38.5454C7.5502 38.5454 7.5502 38.5454 7.5502 38.5454C7.47877 38.5454 7.40775 38.5425 7.33673 38.5404L4.74045 41.1367C4.23135 41.6462 3.97288 42.3634 4.01334 43.1566C4.05711 44.0105 4.43449 44.8342 5.07696 45.4762L12.1391 52.5388C13.4282 53.8279 15.5261 53.8279 16.8151 52.5388L20.819 48.535L22.3492 48.1241C28.6095 49.7959 35.3421 47.992 39.9191 43.4155L48.9231 34.4111C48.9301 34.4041 48.9371 34.397 48.9441 34.3896L53.1371 30.1967C54.446 28.8882 54.446 26.7581 53.1371 25.4488Z" fill="#FF26BE"/>
<path d="M48.0308 39.789L42.1615 45.6583C40.1367 47.6827 37.734 49.2736 35.1076 50.3426L37.3038 52.5388C38.5928 53.8278 40.6908 53.8278 41.9798 52.5388L49.0424 45.4766C50.31 44.2095 50.6135 42.3717 49.7055 41.4637C49.0787 40.8369 48.4982 40.2564 48.0308 39.789Z" fill="#FF26BE"/>
</svg>
