<svg width="54" height="54" viewBox="0 0 54 54" fill="none" xmlns="http://www.w3.org/2000/svg">
<path fill-rule="evenodd" clip-rule="evenodd" d="M6.18742 0H18.4753C21.887 0 24.6627 2.77571 24.6627 6.18742V18.4753C24.6627 21.887 21.887 24.6627 18.4753 24.6627H6.18742C2.77571 24.6627 0 21.887 0 18.4753V6.18742C0 2.77571 2.77571 0 6.18742 0ZM18.4753 20.4826C19.5821 20.4826 20.4826 19.5821 20.4826 18.4753V6.18742C20.4826 5.08063 19.5821 4.18013 18.4753 4.18013H6.18742C5.08063 4.18013 4.18013 5.08063 4.18013 6.18742V18.4753C4.18013 19.5821 5.08063 20.4826 6.18742 20.4826H18.4753ZM35.1131 0H47.2354C50.6928 0 53.5056 2.81281 53.5056 6.27019V18.3926C53.5056 21.8499 50.6928 24.6627 47.2354 24.6627H35.1131C31.6557 24.6627 28.8429 21.8499 28.8429 18.3926V6.27019C28.8429 2.81281 31.6557 0 35.1131 0ZM47.2354 20.4826C48.3879 20.4826 49.3255 19.545 49.3255 18.3926V6.27019C49.3255 5.11773 48.3879 4.18013 47.2354 4.18013H35.1131C33.9606 4.18013 33.023 5.11773 33.023 6.27019V18.3926C33.023 19.545 33.9606 20.4826 35.1131 20.4826H47.2354ZM18.4753 28.8429H6.18742C2.77571 28.8429 0 31.6186 0 35.0303V47.3182C0 50.7299 2.77571 53.5056 6.18742 53.5056H18.4753C21.887 53.5056 24.6627 50.7299 24.6627 47.3182V35.0303C24.6627 31.6186 21.887 28.8429 18.4753 28.8429ZM20.4826 47.3182C20.4826 48.425 19.5821 49.3255 18.4753 49.3255H6.18742C5.08063 49.3255 4.18013 48.425 4.18013 47.3182V35.0303C4.18013 33.9235 5.08063 33.023 6.18742 33.023H18.4753C19.5821 33.023 20.4826 33.9235 20.4826 35.0303V47.3182ZM35.1131 28.8429H47.2354C50.6928 28.8429 53.5056 31.6557 53.5056 35.1131V47.2354C53.5056 50.6928 50.6928 53.5056 47.2354 53.5056H35.1131C31.6557 53.5056 28.8429 50.6928 28.8429 47.2354V35.1131C28.8429 31.6557 31.6557 28.8429 35.1131 28.8429ZM47.2354 49.3255C48.3879 49.3255 49.3255 48.3879 49.3255 47.2354V35.1131C49.3255 33.9606 48.3879 33.023 47.2354 33.023H35.1131C33.9606 33.023 33.023 33.9606 33.023 35.1131V47.2354C33.023 48.3879 33.9606 49.3255 35.1131 49.3255H47.2354Z" fill="url(#paint0_linear)"/>
<defs>
<linearGradient id="paint0_linear" x1="26.7528" y1="2.32076" x2="26.7528" y2="24.3306" gradientUnits="userSpaceOnUse">
<stop stop-color="#F05985"/>
<stop offset="1" stop-color="#FB9764"/>
</linearGradient>
</defs>
</svg>
