<svg width="1998" height="835" viewBox="0 0 1998 835" fill="none" xmlns="http://www.w3.org/2000/svg">
<path opacity="0.35" d="M1385.31 314.676L1370.57 314.662C1370.42 314.662 1370.27 314.655 1370.12 314.648L1362.83 314.642C1358.33 314.635 1354.69 310.996 1354.69 306.503V306.449C1354.69 301.956 1358.34 298.324 1362.84 298.324L1370.09 298.331C1370.25 298.324 1370.41 298.317 1370.58 298.317H1403.85C1408.35 298.317 1412 294.678 1412 290.186V290.131C1412 285.639 1408.35 282 1403.85 282H1213.15C1208.65 282 1205 285.639 1205 290.131V290.186C1205 294.678 1208.65 298.317 1213.15 298.317H1290.14C1290.67 298.317 1291.19 298.372 1291.69 298.468L1296.55 298.474C1301.05 298.481 1304.69 302.12 1304.69 306.613V306.667C1304.68 311.16 1301.04 314.792 1296.53 314.792L1254.25 314.751C1250.61 315.563 1247.89 318.799 1247.88 322.677V322.732C1247.87 327.224 1251.52 330.87 1256.02 330.87L1385.29 331C1389.79 331.007 1393.45 327.368 1393.45 322.875V322.821C1393.45 318.328 1389.81 314.683 1385.31 314.676Z" fill="#FFD494"/>
<path opacity="0.35" d="M421.935 558.986L438.456 559C438.633 559 438.795 559 438.957 559.014L447.129 559.029C452.165 559.029 456.258 563.048 456.243 568.007V568.065C456.243 573.01 452.15 577.029 447.099 577.014L438.971 577C438.795 577.014 438.618 577.014 438.427 577.014H401.129C396.093 577.014 392 581.034 392 585.978V586.036C392 590.981 396.093 595 401.129 595H614.871C619.907 595 624 590.981 624 586.036V585.978C624 581.034 619.907 577.014 614.871 577.014H528.585C527.996 577.014 527.407 576.957 526.847 576.855H521.399C516.364 576.855 512.27 572.836 512.285 567.877V567.819C512.285 562.875 516.378 558.855 521.429 558.87L568.812 558.913C572.891 558.017 575.939 554.446 575.939 550.181V550.123C575.939 545.178 571.86 541.159 566.825 541.145L421.935 541C416.899 541 412.806 545.005 412.791 549.949V550.007C412.806 554.952 416.885 558.971 421.935 558.986Z" fill="#FFD494"/>
<path opacity="0.35" d="M1541.42 584.317L1559.86 584.333C1560.06 584.333 1560.24 584.333 1560.42 584.35L1569.54 584.366C1575.17 584.366 1579.74 588.906 1579.72 594.508V594.573C1579.72 600.159 1575.15 604.699 1569.51 604.683L1560.44 604.667C1560.24 604.683 1560.04 604.683 1559.83 604.683H1518.19C1512.57 604.683 1508 609.223 1508 614.809V614.874C1508 620.46 1512.57 625 1518.19 625H1756.81C1762.43 625 1767 620.46 1767 614.874V614.809C1767 609.223 1762.43 604.683 1756.81 604.683H1660.48C1659.82 604.683 1659.17 604.618 1658.54 604.503H1652.46C1646.84 604.503 1642.27 599.963 1642.28 594.361V594.296C1642.28 588.71 1646.85 584.17 1652.49 584.186L1705.39 584.235C1709.94 583.223 1713.35 579.189 1713.35 574.371V574.305C1713.35 568.72 1708.79 564.18 1703.17 564.163L1541.42 564C1535.8 564 1531.23 568.524 1531.21 574.109V574.175C1531.23 579.76 1535.78 584.301 1541.42 584.317Z" fill="#FFD494"/>
<path opacity="0.35" d="M1874.48 209.658L1812.53 209.593V209.413H1812.28C1808.6 209.405 1805.62 206.43 1805.63 202.756V202.713C1805.63 199.038 1808.62 196.063 1812.3 196.07H1812.54V196.041L1839.84 196.07C1843.53 196.078 1846.52 193.102 1846.52 189.428V189.385C1846.53 185.711 1843.54 182.728 1839.86 182.728L1827.79 182.714C1827.67 182.714 1827.55 182.706 1827.42 182.699L1821.45 182.692C1817.77 182.685 1814.78 179.709 1814.79 176.035V175.992C1814.8 172.318 1817.78 169.342 1821.46 169.35L1827.4 169.357C1827.53 169.35 1827.66 169.342 1827.8 169.342H1855.05C1858.73 169.342 1861.71 166.367 1861.71 162.693V162.65C1861.71 158.975 1858.73 156 1855.05 156H1753.66C1749.98 156 1747 158.975 1747 162.65V162.693C1747 166.367 1749.98 169.342 1753.66 169.342H1761.93C1762.37 169.342 1762.79 169.386 1763.2 169.465L1767.18 169.472C1770.87 169.479 1773.85 172.455 1773.84 176.129V176.172C1773.83 179.846 1770.85 182.822 1767.17 182.814L1712.21 182.778C1709.24 183.441 1707.01 186.092 1707 189.262V189.305C1706.99 192.98 1709.98 195.962 1713.66 195.962L1776.97 196.005V196.193L1780.91 196.2C1784.6 196.207 1787.58 199.183 1787.57 202.857V202.9C1787.56 206.574 1784.58 209.55 1780.9 209.542C1778.73 209.542 1776.97 211.293 1776.97 213.462V218.994C1776.97 221.156 1778.72 222.914 1780.9 222.914H1786.82L1874.48 223C1877.52 223 1879.99 220.543 1880 217.503V215.162C1880 212.122 1877.53 209.658 1874.48 209.658Z" fill="#EDE1CD"/>
<path opacity="0.35" d="M659.871 249H833.324C836.528 247.71 838.788 244.61 838.799 240.98V240.923C838.799 236.141 834.885 232.258 830.051 232.247H828.979V231.959L782.779 231.936C777.945 231.936 774.019 228.052 774.031 223.259V223.202C774.031 218.42 777.957 214.537 782.803 214.548L800.731 214.571V214.479L870.228 214.548C875.063 214.548 878.988 210.677 879 205.895V205.849C879 201.067 875.086 197.184 870.252 197.173L722.88 197C718.046 197 714.12 200.871 714.109 205.653V205.711C714.109 210.493 718.023 214.376 722.857 214.387L732.281 214.422V214.721L741.565 214.733C746.4 214.733 750.325 218.616 750.314 223.409V223.467C750.314 228.248 746.388 232.131 741.542 232.12L732.269 232.108V232.189L662.772 232.12C657.937 232.12 654.012 235.991 654 240.773V240.831C654.012 244.598 656.47 247.813 659.871 249Z" fill="#EDE1CD"/>
<path opacity="0.35" d="M315.11 408.13H166.21C163.46 407.01 161.52 404.32 161.51 401.17V401.12C161.51 396.97 164.87 393.6 169.02 393.59H169.94V393.34L209.6 393.32C213.75 393.32 217.12 389.95 217.11 385.79V385.74C217.11 381.59 213.74 378.22 209.58 378.23L194.19 378.25V378.17L134.53 378.23C130.38 378.23 127.01 374.87 127 370.72V370.68C127 366.53 130.36 363.16 134.51 363.15L261.02 363C265.17 363 268.54 366.36 268.55 370.51V370.56C268.55 374.71 265.19 378.08 261.04 378.09L252.95 378.12V378.38L244.98 378.39C240.83 378.39 237.46 381.76 237.47 385.92V385.97C237.47 390.12 240.84 393.49 245 393.48L252.96 393.47V393.54L312.62 393.48C316.77 393.48 320.14 396.84 320.15 400.99V401.04C320.14 404.31 318.03 407.1 315.11 408.13Z" fill="#EDE1CD"/>
</svg>
