<svg width="54" height="54" viewBox="0 0 54 54" fill="none" xmlns="http://www.w3.org/2000/svg">
<path d="M47.1359 25.4789H43.3141V15.2873C43.3141 12.4846 41.021 10.1915 38.2183 10.1915H28.0267V6.36971C28.0267 2.80267 25.2241 0 21.657 0C18.09 0 15.2873 2.80267 15.2873 6.36971V10.1915H5.09577C2.2931 10.1915 0 12.4846 0 15.2873V24.9693H3.82183C7.64366 24.9693 10.7011 28.0267 10.7011 31.8486C10.7011 35.6704 7.64366 38.7279 3.82183 38.7279H0V48.4098C0 51.2125 2.2931 53.5056 5.09577 53.5056H14.7777V49.6838C14.7777 45.8619 17.8352 42.8045 21.657 42.8045C25.4789 42.8045 28.5363 45.8619 28.5363 49.6838V53.5056H38.2183C41.021 53.5056 43.3141 51.2125 43.3141 48.4098V38.2183H47.1359C50.7029 38.2183 53.5056 35.4156 53.5056 31.8486C53.5056 28.2815 50.7029 25.4789 47.1359 25.4789Z" fill="url(#paint0_linear)"/>
<defs>
<linearGradient id="paint0_linear" x1="26.7528" y1="2.32076" x2="26.7528" y2="24.3306" gradientUnits="userSpaceOnUse">
<stop stop-color="#F05985"/>
<stop offset="1" stop-color="#FB9764"/>
</linearGradient>
</defs>
</svg>
