<svg width="33" height="54" viewBox="0 0 33 54" fill="none" xmlns="http://www.w3.org/2000/svg">
<path fill-rule="evenodd" clip-rule="evenodd" d="M2.97249 0H29.7253C31.367 0 32.6978 1.33085 32.6978 2.97249V50.5331C32.6978 52.1747 31.367 53.5056 29.7253 53.5056H2.97249C1.33074 53.5056 0 52.1747 0 50.533V2.97249C0 1.33085 1.33074 0 2.97249 0ZM16.3489 49.0468C17.1428 49.0468 17.8893 48.7376 18.4508 48.1762C19.0125 47.6146 19.3217 46.8678 19.3214 46.0743C19.3214 44.4352 17.9879 43.1018 16.3489 43.1018C14.7099 43.1018 13.3764 44.4352 13.3764 46.0743C13.3764 47.7127 14.7095 49.0461 16.3489 49.0468ZM4.45873 38.643H28.239V5.94508H4.45873V38.643ZM16.3489 18.8589C17.6968 17.5111 20.0206 17.4659 21.4569 18.9022C22.8469 20.292 22.929 22.5823 21.457 24.0543L16.3489 29.1624L11.2409 24.0543C9.76874 22.5824 9.85088 20.2922 11.2409 18.9022C12.6772 17.4657 15.001 17.5111 16.3489 18.8589Z" fill="url(#paint0_linear)"/>
<defs>
<linearGradient id="paint0_linear" x1="16.3489" y1="2.32076" x2="16.3489" y2="24.3306" gradientUnits="userSpaceOnUse">
<stop stop-color="#F05985"/>
<stop offset="1" stop-color="#FB9764"/>
</linearGradient>
</defs>
</svg>
