<svg width="38" height="54" viewBox="0 0 38 54" fill="none" xmlns="http://www.w3.org/2000/svg">
<path fill-rule="evenodd" clip-rule="evenodd" d="M25.788 34.0198C23.7731 36.0339 21.3512 37.0414 18.5213 37.0414C15.6916 37.0414 13.2691 36.0339 11.2544 34.0198C9.23968 32.0056 8.23181 29.5824 8.23181 26.7527V10.2898C8.23181 7.46005 9.23923 5.03764 11.2544 3.02281C13.2694 1.00809 15.6916 0 18.5213 0C21.3512 0 23.7731 1.00809 25.788 3.02281C27.8034 5.03797 28.8101 7.46005 28.8101 10.2898V26.7527C28.8101 29.5825 27.8026 32.0056 25.788 34.0198ZM34.984 20.5789C35.5414 20.5789 36.0248 20.7827 36.4309 21.19C36.8388 21.5977 37.043 22.0797 37.043 22.6367V26.7527C37.043 31.4902 35.4613 35.6116 32.2993 39.1161C29.1373 42.6207 25.2309 44.6302 20.5796 45.1443V49.3892H28.8101C29.3675 49.3892 29.8504 49.5932 30.257 50.0005C30.6648 50.4077 30.8687 50.8901 30.8687 51.4474C30.8687 52.004 30.6648 52.4874 30.257 52.8943C29.8503 53.3014 29.3674 53.5056 28.8101 53.5056H8.23174C7.67437 53.5056 7.19212 53.3013 6.78487 52.8943C6.37751 52.4872 6.17378 52.0039 6.17378 51.4474C6.17378 50.89 6.37751 50.4075 6.78487 50.0005C7.19212 49.5932 7.67437 49.3892 8.23174 49.3892H16.4633V45.1443C11.8112 44.6302 7.90446 42.6207 4.74279 39.1161C1.58123 35.6116 0 31.4902 0 26.7527V22.6367C0 22.0795 0.203623 21.5973 0.611094 21.19C1.01823 20.7827 1.50059 20.5789 2.0583 20.5789C2.61601 20.5789 3.09781 20.7827 3.50517 21.19C3.9123 21.5973 4.11604 22.0795 4.11604 22.6367V26.7527C4.11604 30.7188 5.52529 34.1115 8.34403 36.9296C11.1631 39.7485 14.5553 41.158 18.5212 41.158C22.4872 41.158 25.8798 39.7485 28.6979 36.9296C31.5168 34.1107 32.9266 30.7186 32.9266 26.7527V22.6367C32.9266 22.0795 33.1303 21.5973 33.5372 21.19C33.945 20.7827 34.4272 20.5789 34.984 20.5789Z" fill="url(#paint0_linear)"/>
<defs>
<linearGradient id="paint0_linear" x1="18.5215" y1="2.32077" x2="18.5215" y2="24.3307" gradientUnits="userSpaceOnUse">
<stop stop-color="#F05985"/>
<stop offset="1" stop-color="#FB9764"/>
</linearGradient>
</defs>
</svg>
